<svg width="24" height="24" viewBox="0 0 24 24" fill="none" xmlns="http://www.w3.org/2000/svg">
<path d="M19.7352 4.86433C18.2737 4.1848 16.7275 3.70197 15.1376 3.42859C14.9395 3.78439 14.7081 4.26294 14.5486 4.64366C12.8343 4.38751 11.1358 4.38751 9.45307 4.64366C9.29359 4.26303 9.05698 3.78439 8.8571 3.42859C7.26558 3.70209 5.71809 4.18616 4.25589 4.86788C1.34621 9.23722 0.557416 13.4979 0.951768 17.6983C2.88166 19.1304 4.75192 20.0004 6.59066 20.5697C7.04763 19.9452 7.45159 19.2841 7.79836 18.5931C7.13816 18.3434 6.50172 18.0356 5.89658 17.6734C6.05583 17.5561 6.21133 17.4339 6.36284 17.3069C10.0297 19.0112 14.014 19.0112 17.6371 17.3069C17.7893 17.433 17.9448 17.5552 18.1033 17.6734C17.4972 18.0365 16.8596 18.3449 16.1981 18.595C16.5468 19.2887 16.95 19.9505 17.4058 20.5714C19.2462 20.0022 21.1182 19.1322 23.0481 17.6983C23.5109 12.829 22.2577 8.60737 19.7352 4.86425V4.86433ZM8.29796 15.1152C7.19716 15.1152 6.29442 14.0939 6.29442 12.8504C6.29442 11.6069 7.17792 10.584 8.29796 10.584C9.41807 10.584 10.3207 11.6051 10.3015 12.8504C10.3032 14.0939 9.41807 15.1152 8.29796 15.1152ZM15.7019 15.1152C14.6012 15.1152 13.6985 14.0939 13.6985 12.8504C13.6985 11.6069 14.5819 10.584 15.7019 10.584C16.8221 10.584 17.7247 11.6051 17.7055 12.8504C17.7055 14.0939 16.8221 15.1152 15.7019 15.1152V15.1152Z" fill="white" fill-opacity="0.16"/>
</svg>
